<svg data-v-423bf9ae="" xmlns="http://www.w3.org/2000/svg" viewBox="0 0 637.0588747251775 163" class="iconAbove"><!----><!----><!----><g data-v-423bf9ae="" id="c5746742-064d-4c8d-85bd-afd96cbaa1e3" fill="#ffffff" transform="matrix(5.042016968350994,0,0,5.042016968350994,-0.4537810379847542,85.50420264449883)"><path d="M2.50 7.77L5.91 4.72L5.91 4.72Q6.15 4.49 6.15 4.42L6.15 4.42L6.15 4.42Q6.15 4.34 6.02 4.33L6.02 4.33L6.02 4.33Q5.88 4.32 5.65 4.32L5.65 4.32L5.30 4.32L5.30 3.64L5.30 3.64Q5.53 3.66 5.83 3.66L5.83 3.66L5.83 3.66Q6.13 3.66 6.42 3.66L6.42 3.66L6.42 3.66Q6.58 3.66 6.73 3.66L6.73 3.66L6.73 3.66Q6.88 3.66 7.01 3.66L7.01 3.66L8.53 3.64L8.53 4.32L8.53 4.32Q8.37 4.32 8.24 4.32L8.24 4.32L8.24 4.32Q8.11 4.31 8.01 4.31L8.01 4.31L8.01 4.31Q7.84 4.31 7.72 4.34L7.72 4.34L7.72 4.34Q7.59 4.36 7.45 4.44L7.45 4.44L7.45 4.44Q7.31 4.51 7.13 4.66L7.13 4.66L7.13 4.66Q6.94 4.81 6.64 5.07L6.64 5.07L3.74 7.64L7.33 11.40L7.33 11.40Q7.47 11.56 7.59 11.64L7.59 11.64L7.59 11.64Q7.70 11.72 7.85 11.75L7.85 11.75L7.85 11.75Q7.99 11.78 8.19 11.78L8.19 11.78L8.19 11.78Q8.39 11.79 8.72 11.79L8.72 11.79L8.72 12.46L8.72 12.46Q8.35 12.46 7.89 12.46L7.89 12.46L7.89 12.46Q7.42 12.45 6.90 12.45L6.90 12.45L6.90 12.45Q6.67 12.45 6.42 12.45L6.42 12.45L6.42 12.45Q6.17 12.46 5.94 12.46L5.94 12.46L5.94 12.46Q5.71 12.46 5.50 12.46L5.50 12.46L5.50 12.46Q5.29 12.46 5.13 12.46L5.13 12.46L5.13 11.79L5.87 11.79L5.87 11.79Q6.04 11.79 6.13 11.78L6.13 11.78L6.13 11.78Q6.21 11.77 6.21 11.72L6.21 11.72L6.21 11.72Q6.21 11.68 6.16 11.61L6.16 11.61L6.16 11.61Q6.10 11.55 5.99 11.42L5.99 11.42L2.95 8.20L2.50 8.58L2.50 11.34L2.50 11.34Q2.50 11.46 2.51 11.55L2.51 11.55L2.51 11.55Q2.52 11.63 2.59 11.69L2.59 11.69L2.59 11.69Q2.67 11.74 2.84 11.76L2.84 11.76L2.84 11.76Q3.01 11.79 3.32 11.79L3.32 11.79L3.66 11.79L3.66 12.46L3.66 12.46Q3.30 12.46 2.84 12.46L2.84 12.46L2.84 12.46Q2.39 12.45 1.87 12.45L1.87 12.45L1.87 12.45Q1.40 12.45 0.92 12.46L0.92 12.46L0.92 12.46Q0.44 12.46 0.09 12.46L0.09 12.46L0.09 11.79L0.42 11.79L0.42 11.79Q0.73 11.79 0.90 11.75L0.90 11.75L0.90 11.75Q1.07 11.71 1.15 11.65L1.15 11.65L1.15 11.65Q1.22 11.59 1.24 11.50L1.24 11.50L1.24 11.50Q1.25 11.42 1.25 11.32L1.25 11.32L1.25 4.83L1.25 4.83Q1.25 4.69 1.23 4.59L1.23 4.59L1.23 4.59Q1.22 4.50 1.14 4.44L1.14 4.44L1.14 4.44Q1.06 4.38 0.89 4.35L0.89 4.35L0.89 4.35Q0.72 4.32 0.42 4.32L0.42 4.32L0.09 4.32L0.09 3.64L0.09 3.64Q0.44 3.66 0.77 3.66L0.77 3.66L0.77 3.66Q1.10 3.67 1.43 3.67L1.43 3.67L1.43 3.67Q1.53 3.67 1.63 3.67L1.63 3.67L1.63 3.67Q1.73 3.66 1.83 3.66L1.83 3.66L1.83 3.66Q1.86 3.66 2.00 3.66L2.00 3.66L2.00 3.66Q2.13 3.66 2.32 3.66L2.32 3.66L2.32 3.66Q2.52 3.66 2.74 3.65L2.74 3.65L2.74 3.65Q2.96 3.65 3.16 3.65L3.16 3.65L3.16 3.65Q3.36 3.64 3.50 3.64L3.50 3.64L3.50 3.64Q3.64 3.64 3.68 3.64L3.68 3.64L3.68 4.32L3.32 4.32L3.32 4.32Q3.01 4.32 2.85 4.36L2.85 4.36L2.85 4.36Q2.68 4.40 2.60 4.47L2.60 4.47L2.60 4.47Q2.52 4.53 2.51 4.62L2.51 4.62L2.51 4.62Q2.50 4.71 2.50 4.81L2.50 4.81L2.50 7.77ZM12.66 6.90L12.66 6.90L12.66 6.90Q12.20 6.90 11.81 7.07L11.81 7.07L11.81 7.07Q11.43 7.25 11.16 7.57L11.16 7.57L11.16 7.57Q10.89 7.89 10.74 8.36L10.74 8.36L10.74 8.36Q10.60 8.83 10.60 9.38L10.60 9.38L10.60 9.38Q10.60 9.93 10.74 10.37L10.74 10.37L10.74 10.37Q10.89 10.81 11.16 11.13L11.16 11.13L11.16 11.13Q11.43 11.44 11.81 11.61L11.81 11.61L11.81 11.61Q12.20 11.78 12.67 11.78L12.67 11.78L12.67 11.78Q13.15 11.78 13.53 11.60L13.53 11.60L13.53 11.60Q13.91 11.42 14.18 11.10L14.18 11.10L14.18 11.10Q14.45 10.78 14.60 10.33L14.60 10.33L14.60 10.33Q14.75 9.88 14.75 9.32L14.75 9.32L14.75 9.32Q14.75 8.79 14.60 8.34L14.60 8.34L14.60 8.34Q14.45 7.90 14.18 7.57L14.18 7.57L14.18 7.57Q13.90 7.25 13.52 7.07L13.52 7.07L13.52 7.07Q13.13 6.90 12.66 6.90ZM14.80 7.44L14.80 6.32L14.80 6.32Q15.11 6.33 15.41 6.34L15.41 6.34L15.41 6.34Q15.71 6.35 16.02 6.35L16.02 6.35L16.02 6.35Q16.28 6.35 16.48 6.35L16.48 6.35L16.48 6.35Q16.69 6.34 16.88 6.34L16.88 6.34L16.88 6.95L16.88 6.95Q16.51 6.95 16.30 6.98L16.30 6.98L16.30 6.98Q16.09 7 15.99 7.06L15.99 7.06L15.99 7.06Q15.89 7.12 15.87 7.22L15.87 7.22L15.87 7.22Q15.85 7.31 15.85 7.47L15.85 7.47L15.85 12.04L15.85 12.04Q15.85 13.00 15.62 13.64L15.62 13.64L15.62 13.64Q15.39 14.28 14.97 14.67L14.97 14.67L14.97 14.67Q14.54 15.05 13.93 15.21L13.93 15.21L13.93 15.21Q13.32 15.37 12.54 15.37L12.54 15.37L12.54 15.37Q11.82 15.37 11.17 15.22L11.17 15.22L11.17 15.22Q10.52 15.07 9.96 14.75L9.96 14.75L10.01 13.31L10.01 13.31Q10.03 13.32 10.13 13.32L10.13 13.32L10.13 13.32Q10.20 13.32 10.29 13.32L10.29 13.32L10.29 13.32Q10.38 13.32 10.46 13.31L10.46 13.31L10.46 13.31Q10.55 13.31 10.64 13.30L10.64 13.30L10.64 13.30Q10.71 13.71 10.86 13.98L10.86 13.98L10.86 13.98Q11.01 14.25 11.26 14.40L11.26 14.40L11.26 14.40Q11.50 14.56 11.82 14.63L11.82 14.63L11.82 14.63Q12.15 14.69 12.55 14.69L12.55 14.69L12.55 14.69Q12.98 14.69 13.37 14.58L13.37 14.58L13.37 14.58Q13.77 14.46 14.06 14.22L14.06 14.22L14.06 14.22Q14.36 13.97 14.54 13.58L14.54 13.58L14.54 13.58Q14.72 13.18 14.72 12.61L14.72 12.61L14.72 11.35L14.72 11.35Q14.33 11.89 13.74 12.18L13.74 12.18L13.74 12.18Q13.15 12.46 12.40 12.46L12.40 12.46L12.40 12.46Q11.72 12.46 11.17 12.24L11.17 12.24L11.17 12.24Q10.62 12.02 10.23 11.61L10.23 11.61L10.23 11.61Q9.84 11.21 9.62 10.64L9.62 10.64L9.62 10.64Q9.41 10.07 9.41 9.37L9.41 9.37L9.41 9.37Q9.41 8.67 9.63 8.08L9.63 8.08L9.63 8.08Q9.85 7.49 10.25 7.07L10.25 7.07L10.25 7.07Q10.64 6.65 11.20 6.42L11.20 6.42L11.20 6.42Q11.75 6.19 12.42 6.19L12.42 6.19L12.42 6.19Q13.19 6.19 13.78 6.50L13.78 6.50L13.78 6.50Q14.38 6.82 14.80 7.44L14.80 7.44ZM20.50 6.19L20.50 6.19L20.50 6.19Q21.22 6.19 21.82 6.41L21.82 6.41L21.82 6.41Q22.42 6.64 22.86 7.06L22.86 7.06L22.86 7.06Q23.29 7.49 23.53 8.09L23.53 8.09L23.53 8.09Q23.77 8.69 23.77 9.41L23.77 9.41L23.77 9.41Q23.77 10.10 23.53 10.69L23.53 10.69L23.53 10.69Q23.29 11.29 22.86 11.72L22.86 11.72L22.86 11.72Q22.43 12.14 21.83 12.37L21.83 12.37L21.83 12.37Q21.23 12.61 20.50 12.61L20.50 12.61L20.50 12.61Q19.78 12.61 19.18 12.38L19.18 12.38L19.18 12.38Q18.58 12.15 18.15 11.72L18.15 11.72L18.15 11.72Q17.72 11.29 17.48 10.69L17.48 10.69L17.48 10.69Q17.25 10.10 17.25 9.41L17.25 9.41L17.25 9.41Q17.25 8.69 17.49 8.09L17.49 8.09L17.49 8.09Q17.73 7.49 18.16 7.06L18.16 7.06L18.16 7.06Q18.59 6.64 19.19 6.41L19.19 6.41L19.19 6.41Q19.78 6.19 20.50 6.19ZM20.50 6.90L20.50 6.90L20.50 6.90Q20.02 6.90 19.64 7.08L19.64 7.08L19.64 7.08Q19.26 7.25 18.99 7.57L18.99 7.57L18.99 7.57Q18.72 7.90 18.57 8.36L18.57 8.36L18.57 8.36Q18.43 8.83 18.43 9.40L18.43 9.40L18.43 9.40Q18.43 9.93 18.58 10.40L18.58 10.40L18.58 10.40Q18.72 10.87 18.99 11.20L18.99 11.20L18.99 11.20Q19.26 11.53 19.65 11.71L19.65 11.71L19.65 11.71Q20.03 11.89 20.50 11.89L20.50 11.89L20.50 11.89Q20.97 11.89 21.36 11.71L21.36 11.71L21.36 11.71Q21.74 11.53 22.01 11.20L22.01 11.20L22.01 11.20Q22.29 10.87 22.43 10.40L22.43 10.40L22.43 10.40Q22.58 9.93 22.58 9.40L22.58 9.40L22.58 9.40Q22.58 8.84 22.43 8.37L22.43 8.37L22.43 8.37Q22.29 7.90 22.02 7.57L22.02 7.57L22.02 7.57Q21.75 7.25 21.36 7.08L21.36 7.08L21.36 7.08Q20.97 6.90 20.50 6.90ZM25.80 4.79L26.67 4.61L26.67 6.34L28.31 6.34L28.31 6.95L26.67 6.95L26.67 10.38L26.67 10.38Q26.67 10.73 26.68 11.00L26.68 11.00L26.68 11.00Q26.69 11.28 26.75 11.48L26.75 11.48L26.75 11.48Q26.80 11.68 26.93 11.78L26.93 11.78L26.93 11.78Q27.06 11.89 27.31 11.89L27.31 11.89L27.31 11.89Q27.41 11.89 27.50 11.85L27.50 11.85L27.50 11.85Q27.60 11.81 27.67 11.72L27.67 11.72L27.67 11.72Q27.74 11.63 27.78 11.49L27.78 11.49L27.78 11.49Q27.83 11.35 27.83 11.15L27.83 11.15L28.45 11.09L28.45 11.09Q28.45 11.49 28.34 11.78L28.34 11.78L28.34 11.78Q28.23 12.07 28.04 12.25L28.04 12.25L28.04 12.25Q27.85 12.43 27.60 12.52L27.60 12.52L27.60 12.52Q27.34 12.61 27.06 12.61L27.06 12.61L27.06 12.61Q26.58 12.61 26.29 12.45L26.29 12.45L26.29 12.45Q25.99 12.29 25.82 12.01L25.82 12.01L25.82 12.01Q25.66 11.74 25.59 11.33L25.59 11.33L25.59 11.33Q25.53 10.93 25.53 10.44L25.53 10.44L25.53 6.95L24.41 6.95L24.41 6.41L24.41 6.41Q24.58 6.41 24.79 6.39L24.79 6.39L24.79 6.39Q25.01 6.37 25.20 6.36L25.20 6.36L25.20 6.36Q25.42 6.34 25.65 6.32L25.65 6.32L25.65 6.32Q25.66 6.27 25.67 6.14L25.67 6.14L25.67 6.14Q25.68 6.02 25.70 5.85L25.70 5.85L25.70 5.85Q25.71 5.68 25.73 5.50L25.73 5.50L25.73 5.50Q25.75 5.32 25.76 5.16L25.76 5.16L25.76 5.16Q25.78 5.01 25.79 4.90L25.79 4.90L25.79 4.90Q25.80 4.80 25.80 4.79L25.80 4.79ZM34.26 6.34L34.26 8.24L33.62 8.24L33.62 8.24Q33.59 7.55 33.16 7.18L33.16 7.18L33.16 7.18Q32.74 6.81 31.93 6.81L31.93 6.81L31.93 6.81Q31.59 6.81 31.34 6.89L31.34 6.89L31.34 6.89Q31.08 6.97 30.91 7.11L30.91 7.11L30.91 7.11Q30.74 7.25 30.66 7.43L30.66 7.43L30.66 7.43Q30.58 7.61 30.58 7.80L30.58 7.80L30.58 7.80Q30.58 8.01 30.69 8.17L30.69 8.17L30.69 8.17Q30.80 8.33 31.01 8.46L31.01 8.46L31.01 8.46Q31.21 8.58 31.50 8.67L31.50 8.67L31.50 8.67Q31.78 8.77 32.12 8.86L32.12 8.86L32.12 8.86Q32.68 9.00 33.12 9.16L33.12 9.16L33.12 9.16Q33.57 9.32 33.88 9.53L33.88 9.53L33.88 9.53Q34.19 9.75 34.36 10.05L34.36 10.05L34.36 10.05Q34.54 10.36 34.54 10.80L34.54 10.80L34.54 10.80Q34.54 11.24 34.36 11.57L34.36 11.57L34.36 11.57Q34.18 11.91 33.85 12.14L33.85 12.14L33.85 12.14Q33.53 12.37 33.07 12.49L33.07 12.49L33.07 12.49Q32.61 12.61 32.05 12.61L32.05 12.61L32.05 12.61Q31.34 12.61 30.87 12.43L30.87 12.43L30.87 12.43Q30.40 12.26 30.10 11.89L30.10 11.89L30.03 12.46L30.03 12.46Q29.87 12.46 29.73 12.45L29.73 12.45L29.73 12.45Q29.59 12.45 29.43 12.46L29.43 12.46L29.43 10.43L30.09 10.43L30.09 10.43Q30.13 11.22 30.60 11.59L30.60 11.59L30.60 11.59Q31.08 11.96 31.90 11.96L31.90 11.96L31.90 11.96Q32.25 11.96 32.54 11.88L32.54 11.88L32.54 11.88Q32.83 11.81 33.03 11.69L33.03 11.69L33.03 11.69Q33.24 11.57 33.35 11.39L33.35 11.39L33.35 11.39Q33.47 11.21 33.47 10.96L33.47 10.96L33.47 10.96Q33.47 10.70 33.31 10.51L33.31 10.51L33.31 10.51Q33.15 10.33 32.88 10.19L32.88 10.19L32.88 10.19Q32.61 10.05 32.25 9.94L32.25 9.94L32.25 9.94Q31.89 9.84 31.49 9.72L31.49 9.72L31.49 9.72Q31.01 9.57 30.64 9.41L30.64 9.41L30.64 9.41Q30.28 9.25 30.03 9.04L30.03 9.04L30.03 9.04Q29.78 8.84 29.66 8.57L29.66 8.57L29.66 8.57Q29.54 8.29 29.54 7.92L29.54 7.92L29.54 7.92Q29.54 7.57 29.69 7.25L29.69 7.25L29.69 7.25Q29.85 6.94 30.13 6.70L30.13 6.70L30.13 6.70Q30.42 6.45 30.83 6.32L30.83 6.32L30.83 6.32Q31.23 6.19 31.74 6.19L31.74 6.19L31.74 6.19Q32.30 6.19 32.80 6.35L32.80 6.35L32.80 6.35Q33.30 6.51 33.61 6.83L33.61 6.83L33.61 6.83Q33.61 6.82 33.63 6.75L33.63 6.75L33.63 6.75Q33.65 6.68 33.68 6.59L33.68 6.59L33.68 6.59Q33.71 6.49 33.75 6.34L33.75 6.34L33.75 6.34Q33.87 6.35 33.98 6.35L33.98 6.35L33.98 6.35Q34.08 6.35 34.16 6.35L34.16 6.35L34.16 6.35Q34.23 6.34 34.26 6.34L34.26 6.34ZM38.94 6.19L38.94 6.19L38.94 6.19Q39.66 6.19 40.26 6.41L40.26 6.41L40.26 6.41Q40.86 6.64 41.29 7.06L41.29 7.06L41.29 7.06Q41.73 7.49 41.97 8.09L41.97 8.09L41.97 8.09Q42.21 8.69 42.21 9.41L42.21 9.41L42.21 9.41Q42.21 10.10 41.97 10.69L41.97 10.69L41.97 10.69Q41.73 11.29 41.30 11.72L41.30 11.72L41.30 11.72Q40.87 12.14 40.26 12.37L40.26 12.37L40.26 12.37Q39.66 12.61 38.94 12.61L38.94 12.61L38.94 12.61Q38.21 12.61 37.61 12.38L37.61 12.38L37.61 12.38Q37.02 12.15 36.59 11.72L36.59 11.72L36.59 11.72Q36.16 11.29 35.92 10.69L35.92 10.69L35.92 10.69Q35.68 10.10 35.68 9.41L35.68 9.41L35.68 9.41Q35.68 8.69 35.92 8.09L35.92 8.09L35.92 8.09Q36.16 7.49 36.59 7.06L36.59 7.06L36.59 7.06Q37.02 6.64 37.62 6.41L37.62 6.41L37.62 6.41Q38.22 6.19 38.94 6.19ZM38.94 6.90L38.94 6.90L38.94 6.90Q38.46 6.90 38.08 7.08L38.08 7.08L38.08 7.08Q37.69 7.25 37.42 7.57L37.42 7.57L37.42 7.57Q37.15 7.90 37.01 8.36L37.01 8.36L37.01 8.36Q36.87 8.83 36.87 9.40L36.87 9.40L36.87 9.40Q36.87 9.93 37.01 10.40L37.01 10.40L37.01 10.40Q37.16 10.87 37.43 11.20L37.43 11.20L37.43 11.20Q37.70 11.53 38.08 11.71L38.08 11.71L38.08 11.71Q38.47 11.89 38.94 11.89L38.94 11.89L38.94 11.89Q39.41 11.89 39.79 11.71L39.79 11.71L39.79 11.71Q40.17 11.53 40.45 11.20L40.45 11.20L40.45 11.20Q40.72 10.87 40.87 10.40L40.87 10.40L40.87 10.40Q41.02 9.93 41.02 9.40L41.02 9.40L41.02 9.40Q41.02 8.84 40.87 8.37L40.87 8.37L40.87 8.37Q40.72 7.90 40.45 7.57L40.45 7.57L40.45 7.57Q40.18 7.25 39.80 7.08L39.80 7.08L39.80 7.08Q39.41 6.90 38.94 6.90ZM46.81 4.32L46.81 3.64L46.81 3.64Q47.22 3.66 47.66 3.66L47.66 3.66L47.66 3.66Q48.11 3.66 48.48 3.66L48.48 3.66L48.48 3.66Q48.51 3.66 48.70 3.65L48.70 3.65L48.70 3.65Q48.88 3.65 49.09 3.65L49.09 3.65L49.09 3.65Q49.30 3.65 49.49 3.65L49.49 3.65L49.49 3.65Q49.68 3.64 49.72 3.64L49.72 3.64L52.43 11.01L52.43 11.01Q52.44 10.98 52.56 10.65L52.56 10.65L52.56 10.65Q52.68 10.33 52.87 9.81L52.87 9.81L52.87 9.81Q53.05 9.30 53.29 8.65L53.29 8.65L53.29 8.65Q53.53 8.00 53.78 7.33L53.78 7.33L53.78 7.33Q54.03 6.66 54.27 6.01L54.27 6.01L54.27 6.01Q54.51 5.37 54.70 4.85L54.70 4.85L54.70 4.85Q54.89 4.33 55.01 4.01L55.01 4.01L55.01 4.01Q55.13 3.68 55.15 3.64L55.15 3.64L55.15 3.64Q55.17 3.64 55.29 3.64L55.29 3.64L55.29 3.64Q55.41 3.64 55.56 3.65L55.56 3.65L55.56 3.65Q55.72 3.65 55.89 3.65L55.89 3.65L55.89 3.65Q56.07 3.66 56.23 3.66L56.23 3.66L56.23 3.66Q56.38 3.66 56.49 3.66L56.49 3.66L56.49 3.66Q56.60 3.66 56.63 3.66L56.63 3.66L56.63 3.66Q56.80 3.66 56.99 3.66L56.99 3.66L56.99 3.66Q57.19 3.66 57.38 3.66L57.38 3.66L57.38 3.66Q57.58 3.66 57.76 3.65L57.76 3.65L57.76 3.65Q57.95 3.65 58.11 3.64L58.11 3.64L58.11 4.32L57.68 4.32L57.68 4.32Q57.42 4.32 57.27 4.35L57.27 4.35L57.27 4.35Q57.12 4.38 57.05 4.44L57.05 4.44L57.05 4.44Q56.98 4.50 56.97 4.59L56.97 4.59L56.97 4.59Q56.96 4.68 56.96 4.79L56.96 4.79L56.96 11.18L56.96 11.18Q56.96 11.40 56.99 11.52L56.99 11.52L56.99 11.52Q57.02 11.64 57.10 11.70L57.10 11.70L57.10 11.70Q57.18 11.76 57.33 11.77L57.33 11.77L57.33 11.77Q57.48 11.79 57.71 11.79L57.71 11.79L58.13 11.79L58.13 12.46L58.13 12.46Q57.89 12.46 57.66 12.46L57.66 12.46L57.66 12.46Q57.44 12.46 57.21 12.46L57.21 12.46L57.21 12.46Q56.97 12.46 56.70 12.45L56.70 12.45L56.70 12.45Q56.44 12.45 56.11 12.45L56.11 12.45L56.11 12.45Q55.86 12.45 55.66 12.45L55.66 12.45L55.66 12.45Q55.47 12.46 55.30 12.46L55.30 12.46L55.30 12.46Q55.14 12.46 54.98 12.46L54.98 12.46L54.98 12.46Q54.83 12.46 54.66 12.46L54.66 12.46L54.66 11.79L55.07 11.79L55.07 11.79Q55.34 11.79 55.50 11.74L55.50 11.74L55.50 11.74Q55.65 11.70 55.72 11.61L55.72 11.61L55.72 11.61Q55.79 11.53 55.81 11.42L55.81 11.42L55.81 11.42Q55.82 11.31 55.82 11.17L55.82 11.17L55.82 4.26L55.20 5.89L52.73 12.46L51.95 12.46L51.95 12.46Q51.70 11.81 51.43 11.10L51.43 11.10L51.43 11.10Q51.17 10.39 50.90 9.66L50.90 9.66L50.90 9.66Q50.63 8.93 50.35 8.21L50.35 8.21L50.35 8.21Q50.08 7.48 49.82 6.79L49.82 6.79L49.82 6.79Q49.56 6.10 49.32 5.46L49.32 5.46L49.32 5.46Q49.08 4.83 48.87 4.29L48.87 4.29L48.87 11.22L48.87 11.22Q48.87 11.42 48.89 11.54L48.89 11.54L48.89 11.54Q48.92 11.65 48.99 11.70L48.99 11.70L48.99 11.70Q49.07 11.76 49.21 11.77L49.21 11.77L49.21 11.77Q49.36 11.79 49.59 11.79L49.59 11.79L50.00 11.79L50.00 12.46L50.00 12.46Q49.83 12.46 49.67 12.46L49.67 12.46L49.67 12.46Q49.51 12.46 49.34 12.46L49.34 12.46L49.34 12.46Q49.16 12.46 48.97 12.45L48.97 12.45L48.97 12.45Q48.77 12.45 48.51 12.45L48.51 12.45L48.51 12.45Q48.24 12.45 48.01 12.45L48.01 12.45L48.01 12.45Q47.78 12.46 47.57 12.46L47.57 12.46L47.57 12.46Q47.36 12.46 47.16 12.46L47.16 12.46L47.16 12.46Q46.96 12.46 46.76 12.46L46.76 12.46L46.76 11.79L47.18 11.79L47.18 11.79Q47.49 11.79 47.64 11.75L47.64 11.75L47.64 11.75Q47.80 11.72 47.86 11.65L47.86 11.65L47.86 11.65Q47.93 11.58 47.93 11.47L47.93 11.47L47.93 11.47Q47.93 11.36 47.93 11.21L47.93 11.21L47.94 4.81L47.94 4.81Q47.94 4.64 47.90 4.54L47.90 4.54L47.90 4.54Q47.86 4.44 47.77 4.40L47.77 4.40L47.77 4.40Q47.69 4.35 47.55 4.33L47.55 4.33L47.55 4.33Q47.41 4.32 47.21 4.32L47.21 4.32L46.81 4.32ZM64.60 8.37L64.60 10.93L64.60 10.93Q64.60 11.29 64.62 11.47L64.62 11.47L64.62 11.47Q64.65 11.66 64.72 11.75L64.72 11.75L64.72 11.75Q64.78 11.83 64.91 11.84L64.91 11.84L64.91 11.84Q65.04 11.85 65.24 11.85L65.24 11.85L65.55 11.85L65.55 12.46L65.55 12.46Q65.01 12.46 64.48 12.47L64.48 12.47L64.48 12.47Q63.95 12.48 63.49 12.49L63.49 12.49L63.49 11.55L63.49 11.55Q63.08 12.08 62.52 12.34L62.52 12.34L62.52 12.34Q61.95 12.61 61.20 12.61L61.20 12.61L61.20 12.61Q60.71 12.61 60.31 12.47L60.31 12.47L60.31 12.47Q59.92 12.33 59.64 12.08L59.64 12.08L59.64 12.08Q59.36 11.83 59.20 11.49L59.20 11.49L59.20 11.49Q59.05 11.15 59.05 10.74L59.05 10.74L59.05 10.74Q59.05 10.30 59.23 9.94L59.23 9.94L59.23 9.94Q59.40 9.58 59.75 9.33L59.75 9.33L59.75 9.33Q60.09 9.08 60.58 8.94L60.58 8.94L60.58 8.94Q61.07 8.80 61.69 8.80L61.69 8.80L61.69 8.80Q62.13 8.80 62.56 8.86L62.56 8.86L62.56 8.86Q63 8.93 63.45 9.04L63.45 9.04L63.45 8.06L63.45 8.06Q63.45 7.44 63.04 7.11L63.04 7.11L63.04 7.11Q62.62 6.78 61.77 6.78L61.77 6.78L61.77 6.78Q61.05 6.78 60.65 7.06L60.65 7.06L60.65 7.06Q60.24 7.33 60.10 7.92L60.10 7.92L59.47 7.84L59.56 6.64L59.56 6.64Q60.00 6.44 60.58 6.31L60.58 6.31L60.58 6.31Q61.17 6.19 61.90 6.19L61.90 6.19L61.90 6.19Q62.62 6.19 63.14 6.32L63.14 6.32L63.14 6.32Q63.65 6.45 63.97 6.71L63.97 6.71L63.97 6.71Q64.30 6.98 64.45 7.39L64.45 7.39L64.45 7.39Q64.60 7.81 64.60 8.37L64.60 8.37ZM61.95 9.37L61.95 9.37L61.95 9.37Q61.54 9.37 61.22 9.46L61.22 9.46L61.22 9.46Q60.89 9.56 60.66 9.73L60.66 9.73L60.66 9.73Q60.43 9.90 60.31 10.14L60.31 10.14L60.31 10.14Q60.18 10.39 60.18 10.71L60.18 10.71L60.18 10.71Q60.18 10.99 60.28 11.20L60.28 11.20L60.28 11.20Q60.38 11.42 60.56 11.57L60.56 11.57L60.56 11.57Q60.74 11.72 61.00 11.81L61.00 11.81L61.00 11.81Q61.25 11.89 61.55 11.89L61.55 11.89L61.55 11.89Q61.88 11.89 62.22 11.79L62.22 11.79L62.22 11.79Q62.56 11.68 62.83 11.49L62.83 11.49L62.83 11.49Q63.10 11.29 63.28 11.00L63.28 11.00L63.28 11.00Q63.45 10.70 63.45 10.28L63.45 10.28L63.45 9.61L63.45 9.61Q63.04 9.50 62.67 9.43L62.67 9.43L62.67 9.43Q62.30 9.37 61.95 9.37ZM65.99 12.46L65.99 11.85L65.99 11.85Q66.28 11.85 66.48 11.84L66.48 11.84L66.48 11.84Q66.68 11.83 66.81 11.78L66.81 11.78L66.81 11.78Q66.94 11.74 66.99 11.65L66.99 11.65L66.99 11.65Q67.05 11.55 67.05 11.39L67.05 11.39L67.05 4.58L67.05 4.58Q67.05 4.45 66.99 4.39L66.99 4.39L66.99 4.39Q66.92 4.32 66.80 4.29L66.80 4.29L66.80 4.29Q66.67 4.26 66.48 4.25L66.48 4.25L66.48 4.25Q66.29 4.25 66.03 4.25L66.03 4.25L66.03 3.63L66.03 3.63Q66.40 3.63 66.68 3.63L66.68 3.63L66.68 3.63Q66.97 3.63 67.22 3.63L67.22 3.63L67.22 3.63Q67.47 3.62 67.70 3.62L67.70 3.62L67.70 3.62Q67.94 3.61 68.19 3.60L68.19 3.60L68.19 9.07L70.03 7.68L70.03 7.68Q70.72 7.19 70.72 7.05L70.72 7.05L70.72 7.05Q70.72 7.01 70.67 6.99L70.67 6.99L70.67 6.99Q70.62 6.97 70.52 6.96L70.52 6.96L70.52 6.96Q70.43 6.95 70.30 6.95L70.30 6.95L70.30 6.95Q70.18 6.95 70.04 6.95L70.04 6.95L70.06 6.34L70.06 6.34Q70.42 6.35 70.69 6.35L70.69 6.35L70.69 6.35Q70.97 6.36 71.20 6.36L71.20 6.36L71.20 6.36Q71.59 6.36 71.99 6.35L71.99 6.35L71.99 6.35Q72.39 6.35 72.91 6.34L72.91 6.34L72.91 6.95L72.91 6.95Q72.63 6.95 72.47 6.96L72.47 6.96L72.47 6.96Q72.32 6.97 72.17 7.03L72.17 7.03L72.17 7.03Q72.02 7.09 71.83 7.23L71.83 7.23L71.83 7.23Q71.63 7.36 71.27 7.63L71.27 7.63L69.35 9.05L72.02 11.50L72.02 11.50Q72.26 11.73 72.46 11.80L72.46 11.80L72.46 11.80Q72.65 11.86 72.88 11.86L72.88 11.86L72.88 11.86Q72.95 11.86 73.03 11.86L73.03 11.86L73.03 11.86Q73.10 11.85 73.20 11.85L73.20 11.85L73.20 12.46L73.20 12.46Q72.86 12.46 72.54 12.46L72.54 12.46L72.54 12.46Q72.21 12.45 71.83 12.45L71.83 12.45L71.83 12.45Q71.57 12.45 71.36 12.45L71.36 12.45L71.36 12.45Q71.14 12.46 70.94 12.46L70.94 12.46L70.94 12.46Q70.73 12.46 70.53 12.46L70.53 12.46L70.53 12.46Q70.33 12.46 70.12 12.46L70.12 12.46L70.12 11.85L70.12 11.85Q70.48 11.85 70.63 11.84L70.63 11.84L70.63 11.84Q70.79 11.83 70.79 11.74L70.79 11.74L70.79 11.74Q70.79 11.67 70.69 11.56L70.69 11.56L70.69 11.56Q70.59 11.46 70.42 11.31L70.42 11.31L68.48 9.52L68.19 9.71L68.18 11.40L68.18 11.40Q68.18 11.54 68.22 11.63L68.22 11.63L68.22 11.63Q68.26 11.72 68.38 11.77L68.38 11.77L68.38 11.77Q68.50 11.82 68.70 11.84L68.70 11.84L68.70 11.84Q68.91 11.85 69.25 11.85L69.25 11.85L69.25 12.46L69.25 12.46Q68.90 12.46 68.53 12.46L68.53 12.46L68.53 12.46Q68.17 12.46 67.70 12.45L67.70 12.45L67.70 12.45Q67.66 12.45 67.45 12.45L67.45 12.45L67.45 12.45Q67.25 12.46 66.98 12.46L66.98 12.46L66.98 12.46Q66.71 12.46 66.44 12.46L66.44 12.46L66.44 12.46Q66.16 12.46 65.99 12.46L65.99 12.46ZM78.89 11.46L78.89 8.83L78.89 8.83Q78.89 8.33 78.84 7.96L78.84 7.96L78.84 7.96Q78.78 7.59 78.64 7.35L78.64 7.35L78.64 7.35Q78.50 7.12 78.26 7.01L78.26 7.01L78.26 7.01Q78.02 6.90 77.63 6.90L77.63 6.90L77.63 6.90Q77.26 6.90 76.94 7.01L76.94 7.01L76.94 7.01Q76.62 7.13 76.37 7.31L76.37 7.31L76.37 7.31Q76.13 7.49 75.94 7.69L75.94 7.69L75.94 7.69Q75.76 7.90 75.65 8.07L75.65 8.07L75.65 11.56L75.65 11.56Q75.65 11.67 75.69 11.73L75.69 11.73L75.69 11.73Q75.74 11.79 75.86 11.82L75.86 11.82L75.86 11.82Q75.97 11.85 76.18 11.85L76.18 11.85L76.18 11.85Q76.38 11.85 76.69 11.85L76.69 11.85L76.69 12.46L76.69 12.46Q76.49 12.46 76.30 12.46L76.30 12.46L76.30 12.46Q76.12 12.46 75.92 12.46L75.92 12.46L75.92 12.46Q75.72 12.46 75.50 12.46L75.50 12.46L75.50 12.46Q75.28 12.46 75.02 12.45L75.02 12.45L75.02 12.45Q74.79 12.45 74.58 12.45L74.58 12.45L74.58 12.45Q74.38 12.46 74.19 12.46L74.19 12.46L74.19 12.46Q74.00 12.46 73.82 12.46L73.82 12.46L73.82 12.46Q73.64 12.46 73.46 12.46L73.46 12.46L73.46 11.85L73.46 11.85Q73.84 11.85 74.05 11.84L74.05 11.84L74.05 11.84Q74.27 11.82 74.36 11.78L74.36 11.78L74.36 11.78Q74.46 11.74 74.48 11.68L74.48 11.68L74.48 11.68Q74.50 11.61 74.50 11.52L74.50 11.52L74.50 4.51L74.50 4.51Q74.50 4.41 74.43 4.35L74.43 4.35L74.43 4.35Q74.36 4.29 74.23 4.27L74.23 4.27L74.23 4.27Q74.09 4.25 73.91 4.24L73.91 4.24L73.91 4.24Q73.73 4.24 73.50 4.24L73.50 4.24L73.50 3.62L73.50 3.62Q73.62 3.62 73.76 3.63L73.76 3.63L73.76 3.63Q73.89 3.63 74.07 3.63L74.07 3.63L74.07 3.63Q74.44 3.63 74.83 3.62L74.83 3.62L74.83 3.62Q75.22 3.61 75.64 3.60L75.64 3.60L75.64 3.60Q75.64 3.99 75.64 4.45L75.64 4.45L75.64 4.45Q75.65 4.91 75.65 5.38L75.65 5.38L75.65 5.38Q75.65 5.86 75.65 6.32L75.65 6.32L75.65 6.32Q75.65 6.78 75.65 7.18L75.65 7.18L75.65 7.18Q76.14 6.67 76.74 6.43L76.74 6.43L76.74 6.43Q77.33 6.19 78.06 6.19L78.06 6.19L78.06 6.19Q78.70 6.19 79.08 6.38L79.08 6.38L79.08 6.38Q79.47 6.58 79.69 6.98L79.69 6.98L79.69 6.98Q79.90 7.37 79.97 7.96L79.97 7.96L79.97 7.96Q80.04 8.54 80.04 9.33L80.04 9.33L80.04 11.44L80.04 11.44Q80.04 11.60 80.09 11.68L80.09 11.68L80.09 11.68Q80.14 11.76 80.25 11.80L80.25 11.80L80.25 11.80Q80.36 11.84 80.55 11.85L80.55 11.85L80.55 11.85Q80.73 11.85 81.01 11.85L81.01 11.85L81.01 12.46L81.01 12.46Q80.83 12.46 80.65 12.46L80.65 12.46L80.65 12.46Q80.48 12.46 80.29 12.46L80.29 12.46L80.29 12.46Q80.11 12.46 79.90 12.46L79.90 12.46L79.90 12.46Q79.69 12.46 79.45 12.45L79.45 12.45L79.45 12.45Q78.96 12.45 78.59 12.46L78.59 12.46L78.59 12.46Q78.22 12.46 77.85 12.46L77.85 12.46L77.85 11.85L77.85 11.85Q78.16 11.85 78.35 11.83L78.35 11.83L78.35 11.83Q78.55 11.82 78.67 11.78L78.67 11.78L78.67 11.78Q78.79 11.74 78.84 11.67L78.84 11.67L78.84 11.67Q78.89 11.59 78.89 11.46L78.89 11.46ZM87.32 8.37L87.32 10.93L87.32 10.93Q87.32 11.29 87.34 11.47L87.34 11.47L87.34 11.47Q87.36 11.66 87.43 11.75L87.43 11.75L87.43 11.75Q87.50 11.83 87.63 11.84L87.63 11.84L87.63 11.84Q87.75 11.85 87.96 11.85L87.96 11.85L88.27 11.85L88.27 12.46L88.27 12.46Q87.73 12.46 87.20 12.47L87.20 12.47L87.20 12.47Q86.67 12.48 86.21 12.49L86.21 12.49L86.21 11.55L86.21 11.55Q85.80 12.08 85.23 12.34L85.23 12.34L85.23 12.34Q84.67 12.61 83.92 12.61L83.92 12.61L83.92 12.61Q83.43 12.61 83.03 12.47L83.03 12.47L83.03 12.47Q82.63 12.33 82.35 12.08L82.35 12.08L82.35 12.08Q82.07 11.83 81.92 11.49L81.92 11.49L81.92 11.49Q81.76 11.15 81.76 10.74L81.76 10.74L81.76 10.74Q81.76 10.30 81.94 9.94L81.94 9.94L81.94 9.94Q82.12 9.58 82.46 9.33L82.46 9.33L82.46 9.33Q82.80 9.08 83.29 8.94L83.29 8.94L83.29 8.94Q83.78 8.80 84.41 8.80L84.41 8.80L84.41 8.80Q84.84 8.80 85.28 8.86L85.28 8.86L85.28 8.86Q85.72 8.93 86.17 9.04L86.17 9.04L86.17 8.06L86.17 8.06Q86.17 7.44 85.75 7.11L85.75 7.11L85.75 7.11Q85.34 6.78 84.49 6.78L84.49 6.78L84.49 6.78Q83.77 6.78 83.36 7.06L83.36 7.06L83.36 7.06Q82.95 7.33 82.82 7.92L82.82 7.92L82.19 7.84L82.28 6.64L82.28 6.64Q82.71 6.44 83.30 6.31L83.30 6.31L83.30 6.31Q83.88 6.19 84.62 6.19L84.62 6.19L84.62 6.19Q85.34 6.19 85.85 6.32L85.85 6.32L85.85 6.32Q86.37 6.45 86.69 6.71L86.69 6.71L86.69 6.71Q87.01 6.98 87.17 7.39L87.17 7.39L87.17 7.39Q87.32 7.81 87.32 8.37L87.32 8.37ZM84.67 9.37L84.67 9.37L84.67 9.37Q84.26 9.37 83.93 9.46L83.93 9.46L83.93 9.46Q83.60 9.56 83.37 9.73L83.37 9.73L83.37 9.73Q83.15 9.90 83.02 10.14L83.02 10.14L83.02 10.14Q82.90 10.39 82.90 10.71L82.90 10.71L82.90 10.71Q82.90 10.99 83.00 11.20L83.00 11.20L83.00 11.20Q83.10 11.42 83.28 11.57L83.28 11.57L83.28 11.57Q83.46 11.72 83.71 11.81L83.71 11.81L83.71 11.81Q83.97 11.89 84.27 11.89L84.27 11.89L84.27 11.89Q84.59 11.89 84.93 11.79L84.93 11.79L84.93 11.79Q85.27 11.68 85.54 11.49L85.54 11.49L85.54 11.49Q85.82 11.29 85.99 11.00L85.99 11.00L85.99 11.00Q86.17 10.70 86.17 10.28L86.17 10.28L86.17 9.61L86.17 9.61Q85.76 9.50 85.39 9.43L85.39 9.43L85.39 9.43Q85.02 9.37 84.67 9.37ZM90.88 3.60L90.88 11.38L90.88 11.38Q90.88 11.55 90.95 11.64L90.95 11.64L90.95 11.64Q91.01 11.74 91.15 11.79L91.15 11.79L91.15 11.79Q91.28 11.83 91.48 11.84L91.48 11.84L91.48 11.84Q91.67 11.85 91.94 11.85L91.94 11.85L91.94 12.46L91.94 12.46Q91.75 12.46 91.56 12.46L91.56 12.46L91.56 12.46Q91.38 12.46 91.18 12.46L91.18 12.46L91.18 12.46Q90.99 12.46 90.77 12.46L90.77 12.46L90.77 12.46Q90.56 12.46 90.31 12.45L90.31 12.45L90.31 12.45Q90.06 12.45 89.85 12.45L89.85 12.45L89.85 12.45Q89.64 12.46 89.45 12.46L89.45 12.46L89.45 12.46Q89.26 12.46 89.08 12.46L89.08 12.46L89.08 12.46Q88.90 12.46 88.72 12.46L88.72 12.46L88.72 12.46Q88.72 12.41 88.72 12.33L88.72 12.33L88.72 12.33Q88.72 12.24 88.71 12.16L88.71 12.16L88.71 12.16Q88.71 12.07 88.71 11.99L88.71 11.99L88.71 11.99Q88.71 11.91 88.71 11.85L88.71 11.85L88.71 11.85Q89.10 11.85 89.31 11.82L89.31 11.82L89.31 11.82Q89.52 11.79 89.61 11.72L89.61 11.72L89.61 11.72Q89.71 11.65 89.73 11.55L89.73 11.55L89.73 11.55Q89.74 11.44 89.74 11.30L89.74 11.30L89.74 4.59L89.74 4.59Q89.74 4.46 89.68 4.40L89.68 4.40L89.68 4.40Q89.61 4.33 89.48 4.30L89.48 4.30L89.48 4.30Q89.35 4.27 89.17 4.26L89.17 4.26L89.17 4.26Q88.98 4.25 88.74 4.25L88.74 4.25L88.74 3.63L88.74 3.63Q89.28 3.63 89.79 3.62L89.79 3.62L89.79 3.62Q90.30 3.62 90.88 3.60L90.88 3.60ZM94.03 3.47L94.03 3.47L94.03 3.47Q94.37 3.47 94.57 3.64L94.57 3.64L94.57 3.64Q94.77 3.81 94.77 4.10L94.77 4.10L94.77 4.10Q94.77 4.40 94.57 4.58L94.57 4.58L94.57 4.58Q94.38 4.75 94.03 4.75L94.03 4.75L94.03 4.75Q93.69 4.75 93.50 4.58L93.50 4.58L93.50 4.58Q93.30 4.41 93.30 4.10L93.30 4.10L93.30 4.10Q93.30 3.81 93.50 3.64L93.50 3.64L93.50 3.64Q93.69 3.47 94.03 3.47ZM94.75 6.31L94.75 11.40L94.75 11.40Q94.75 11.56 94.80 11.65L94.80 11.65L94.80 11.65Q94.86 11.74 94.98 11.79L94.98 11.79L94.98 11.79Q95.10 11.83 95.30 11.84L95.30 11.84L95.30 11.84Q95.49 11.85 95.77 11.85L95.77 11.85L95.77 12.46L95.77 12.46Q95.59 12.46 95.29 12.46L95.29 12.46L95.29 12.46Q94.99 12.46 94.69 12.46L94.69 12.46L94.69 12.46Q94.39 12.46 94.16 12.45L94.16 12.45L94.16 12.45Q93.93 12.45 93.88 12.45L93.88 12.45L93.88 12.45Q93.50 12.45 93.20 12.46L93.20 12.46L93.20 12.46Q92.90 12.46 92.59 12.46L92.59 12.46L92.59 11.85L92.59 11.85Q92.96 11.85 93.16 11.83L93.16 11.83L93.16 11.83Q93.37 11.81 93.46 11.76L93.46 11.76L93.46 11.76Q93.56 11.72 93.58 11.63L93.58 11.63L93.58 11.63Q93.60 11.55 93.60 11.41L93.60 11.41L93.60 7.20L93.60 7.20Q93.60 7.10 93.55 7.05L93.55 7.05L93.55 7.05Q93.50 7.01 93.38 6.98L93.38 6.98L93.38 6.98Q93.26 6.96 93.07 6.96L93.07 6.96L93.07 6.96Q92.89 6.95 92.62 6.95L92.62 6.95L92.62 6.34L92.62 6.34Q93.20 6.34 93.71 6.34L93.71 6.34L93.71 6.34Q94.23 6.33 94.75 6.31L94.75 6.31ZM101.60 11.48L101.60 8.82L101.60 8.82Q101.60 8.37 101.55 8.01L101.55 8.01L101.55 8.01Q101.51 7.65 101.38 7.40L101.38 7.40L101.38 7.40Q101.25 7.14 101.01 7.02L101.01 7.02L101.01 7.02Q100.77 6.90 100.38 6.90L100.38 6.90L100.38 6.90Q100.05 6.90 99.79 6.99L99.79 6.99L99.79 6.99Q99.53 7.08 99.31 7.23L99.31 7.23L99.31 7.23Q99.09 7.38 98.90 7.57L98.90 7.57L98.90 7.57Q98.70 7.76 98.49 7.99L98.49 7.99L98.49 10.87L98.49 10.87Q98.49 11.26 98.49 11.46L98.49 11.46L98.49 11.46Q98.49 11.67 98.58 11.75L98.58 11.75L98.58 11.75Q98.67 11.84 98.89 11.85L98.89 11.85L98.89 11.85Q99.10 11.85 99.51 11.85L99.51 11.85L99.51 12.46L99.51 12.46Q99.33 12.46 99.16 12.46L99.16 12.46L99.16 12.46Q98.99 12.46 98.81 12.46L98.81 12.46L98.81 12.46Q98.62 12.46 98.42 12.46L98.42 12.46L98.42 12.46Q98.21 12.46 97.97 12.45L97.97 12.45L97.97 12.45Q97.47 12.45 97.08 12.46L97.08 12.46L97.08 12.46Q96.70 12.46 96.32 12.46L96.32 12.46L96.32 11.85L96.32 11.85Q96.69 11.85 96.90 11.83L96.90 11.83L96.90 11.83Q97.10 11.81 97.20 11.76L97.20 11.76L97.20 11.76Q97.30 11.72 97.31 11.65L97.31 11.65L97.31 11.65Q97.33 11.57 97.33 11.47L97.33 11.47L97.33 7.27L97.33 7.27Q97.33 7.16 97.28 7.09L97.28 7.09L97.28 7.09Q97.23 7.03 97.11 7.00L97.11 7.00L97.11 7.00Q97.00 6.97 96.81 6.96L96.81 6.96L96.81 6.96Q96.62 6.95 96.35 6.95L96.35 6.95L96.35 6.34L96.35 6.34Q96.49 6.34 96.62 6.35L96.62 6.35L96.62 6.35Q96.76 6.35 96.95 6.35L96.95 6.35L96.95 6.35Q97.32 6.35 97.68 6.34L97.68 6.34L97.68 6.34Q98.05 6.33 98.42 6.32L98.42 6.32L98.42 7.33L98.42 7.33Q98.88 6.79 99.48 6.49L99.48 6.49L99.48 6.49Q100.09 6.20 100.82 6.19L100.82 6.19L100.82 6.19Q101.43 6.19 101.91 6.49L101.91 6.49L101.91 6.49Q102.38 6.79 102.62 7.36L102.62 7.36L102.62 7.36Q103.12 6.80 103.74 6.49L103.74 6.49L103.74 6.49Q104.35 6.19 105.05 6.19L105.05 6.19L105.05 6.19Q105.67 6.20 106.06 6.41L106.06 6.41L106.06 6.41Q106.44 6.61 106.65 6.98L106.65 6.98L106.65 6.98Q106.86 7.35 106.93 7.87L106.93 7.87L106.93 7.87Q107.00 8.39 107.01 9.03L107.01 9.03L107.01 11.54L107.01 11.54Q107.01 11.66 107.06 11.71L107.06 11.71L107.06 11.71Q107.11 11.77 107.22 11.80L107.22 11.80L107.22 11.80Q107.33 11.83 107.52 11.83L107.52 11.83L107.52 11.83Q107.70 11.83 107.97 11.84L107.97 11.84L107.97 12.46L107.97 12.46Q107.59 12.46 107.21 12.46L107.21 12.46L107.21 12.46Q106.83 12.45 106.34 12.45L106.34 12.45L106.34 12.45Q106.10 12.45 105.90 12.45L105.90 12.45L105.90 12.45Q105.70 12.46 105.53 12.46L105.53 12.46L105.53 12.46Q105.35 12.46 105.18 12.46L105.18 12.46L105.18 12.46Q105.01 12.46 104.83 12.46L104.83 12.46L104.83 11.84L104.83 11.84Q105.12 11.83 105.32 11.82L105.32 11.82L105.32 11.82Q105.52 11.81 105.64 11.77L105.64 11.77L105.64 11.77Q105.75 11.74 105.80 11.67L105.80 11.67L105.80 11.67Q105.85 11.59 105.85 11.46L105.85 11.46L105.85 8.82L105.85 8.82Q105.85 8.33 105.81 7.97L105.81 7.97L105.81 7.97Q105.76 7.61 105.63 7.37L105.63 7.37L105.63 7.37Q105.49 7.12 105.25 7.01L105.25 7.01L105.25 7.01Q105.01 6.90 104.63 6.90L104.63 6.90L104.63 6.90Q104.30 6.90 104.03 7.00L104.03 7.00L104.03 7.00Q103.76 7.11 103.54 7.26L103.54 7.26L103.54 7.26Q103.31 7.42 103.12 7.60L103.12 7.60L103.12 7.60Q102.94 7.79 102.78 8.00L102.78 8.00L102.78 8.00Q102.76 8.25 102.76 8.50L102.76 8.50L102.76 8.50Q102.75 8.76 102.75 9.02L102.75 9.02L102.75 11.52L102.75 11.52Q102.75 11.64 102.80 11.71L102.80 11.71L102.80 11.71Q102.84 11.77 102.95 11.80L102.95 11.80L102.95 11.80Q103.05 11.83 103.24 11.84L103.24 11.84L103.24 11.84Q103.43 11.85 103.71 11.85L103.71 11.85L103.71 12.46L103.71 12.46Q103.54 12.46 103.38 12.46L103.38 12.46L103.38 12.46Q103.22 12.46 103.04 12.46L103.04 12.46L103.04 12.46Q102.87 12.46 102.67 12.46L102.67 12.46L102.67 12.46Q102.47 12.46 102.23 12.45L102.23 12.45L102.23 12.45Q101.98 12.45 101.76 12.45L101.76 12.45L101.76 12.45Q101.55 12.46 101.35 12.46L101.35 12.46L101.35 12.46Q101.15 12.46 100.96 12.46L100.96 12.46L100.96 12.46Q100.78 12.46 100.58 12.46L100.58 12.46L100.58 11.85L100.58 11.85Q100.87 11.85 101.07 11.84L101.07 11.84L101.07 11.84Q101.26 11.83 101.38 11.79L101.38 11.79L101.38 11.79Q101.50 11.75 101.55 11.68L101.55 11.68L101.55 11.68Q101.60 11.60 101.60 11.48L101.60 11.48ZM115.17 9.49L114.76 9.61L109.92 9.61L109.92 9.61Q109.93 10.16 110.09 10.58L110.09 10.58L110.09 10.58Q110.26 10.99 110.56 11.28L110.56 11.28L110.56 11.28Q110.86 11.57 111.28 11.73L111.28 11.73L111.28 11.73Q111.70 11.89 112.21 11.89L112.21 11.89L112.21 11.89Q112.93 11.89 113.46 11.59L113.46 11.59L113.46 11.59Q113.98 11.30 114.27 10.68L114.27 10.68L115.10 10.81L115.10 10.81Q114.78 11.68 113.99 12.14L113.99 12.14L113.99 12.14Q113.20 12.61 112.05 12.61L112.05 12.61L112.05 12.61Q111.28 12.61 110.67 12.37L110.67 12.37L110.67 12.37Q110.05 12.14 109.62 11.72L109.62 11.72L109.62 11.72Q109.20 11.29 108.97 10.72L108.97 10.72L108.97 10.72Q108.75 10.15 108.75 9.42L108.75 9.42L108.75 9.42Q108.75 8.68 108.98 8.09L108.98 8.09L108.98 8.09Q109.21 7.50 109.63 7.08L109.63 7.08L109.63 7.08Q110.06 6.65 110.66 6.42L110.66 6.42L110.66 6.42Q111.25 6.19 111.99 6.19L111.99 6.19L111.99 6.19Q112.72 6.19 113.31 6.41L113.31 6.41L113.31 6.41Q113.90 6.63 114.31 7.05L114.31 7.05L114.31 7.05Q114.72 7.48 114.94 8.09L114.94 8.09L114.94 8.09Q115.17 8.70 115.17 9.49L115.17 9.49ZM109.93 9.00L114.06 9.00L114.06 9.00Q113.98 7.96 113.45 7.43L113.45 7.43L113.45 7.43Q112.92 6.90 112 6.90L112 6.90L112 6.90Q111.57 6.90 111.21 7.04L111.21 7.04L111.21 7.04Q110.86 7.19 110.59 7.45L110.59 7.45L110.59 7.45Q110.33 7.72 110.16 8.10L110.16 8.10L110.16 8.10Q109.99 8.48 109.93 9.00L109.93 9.00ZM118.15 3.60L118.15 11.38L118.15 11.38Q118.15 11.55 118.22 11.64L118.22 11.64L118.22 11.64Q118.28 11.74 118.42 11.79L118.42 11.79L118.42 11.79Q118.55 11.83 118.74 11.84L118.74 11.84L118.74 11.84Q118.94 11.85 119.21 11.85L119.21 11.85L119.21 12.46L119.21 12.46Q119.01 12.46 118.83 12.46L118.83 12.46L118.83 12.46Q118.64 12.46 118.45 12.46L118.45 12.46L118.45 12.46Q118.25 12.46 118.04 12.46L118.04 12.46L118.04 12.46Q117.83 12.46 117.58 12.45L117.58 12.45L117.58 12.45Q117.33 12.45 117.12 12.45L117.12 12.45L117.12 12.45Q116.91 12.46 116.72 12.46L116.72 12.46L116.72 12.46Q116.53 12.46 116.35 12.46L116.35 12.46L116.35 12.46Q116.17 12.46 115.99 12.46L115.99 12.46L115.99 12.46Q115.99 12.41 115.99 12.33L115.99 12.33L115.99 12.33Q115.99 12.24 115.98 12.16L115.98 12.16L115.98 12.16Q115.98 12.07 115.98 11.99L115.98 11.99L115.98 11.99Q115.98 11.91 115.98 11.85L115.98 11.85L115.98 11.85Q116.37 11.85 116.58 11.82L116.58 11.82L116.58 11.82Q116.79 11.79 116.88 11.72L116.88 11.72L116.88 11.72Q116.98 11.65 116.99 11.55L116.99 11.55L116.99 11.55Q117.01 11.44 117.01 11.30L117.01 11.30L117.01 4.59L117.01 4.59Q117.01 4.46 116.95 4.40L116.95 4.40L116.95 4.40Q116.88 4.33 116.75 4.30L116.75 4.30L116.75 4.30Q116.62 4.27 116.44 4.26L116.44 4.26L116.44 4.26Q116.25 4.25 116.01 4.25L116.01 4.25L116.01 3.63L116.01 3.63Q116.55 3.63 117.06 3.62L117.06 3.62L117.06 3.62Q117.56 3.62 118.15 3.60L118.15 3.60ZM126.44 9.49L126.03 9.61L121.19 9.61L121.19 9.61Q121.20 10.16 121.37 10.58L121.37 10.58L121.37 10.58Q121.53 10.99 121.83 11.28L121.83 11.28L121.83 11.28Q122.13 11.57 122.55 11.73L122.55 11.73L122.55 11.73Q122.97 11.89 123.48 11.89L123.48 11.89L123.48 11.89Q124.20 11.89 124.73 11.59L124.73 11.59L124.73 11.59Q125.25 11.30 125.54 10.68L125.54 10.68L126.37 10.81L126.37 10.81Q126.05 11.68 125.27 12.14L125.27 12.14L125.27 12.14Q124.48 12.61 123.33 12.61L123.33 12.61L123.33 12.61Q122.55 12.61 121.94 12.37L121.94 12.37L121.94 12.37Q121.32 12.14 120.90 11.72L120.90 11.72L120.90 11.72Q120.47 11.29 120.24 10.72L120.24 10.72L120.24 10.72Q120.02 10.15 120.02 9.42L120.02 9.42L120.02 9.42Q120.02 8.68 120.25 8.09L120.25 8.09L120.25 8.09Q120.48 7.50 120.91 7.08L120.91 7.08L120.91 7.08Q121.33 6.65 121.93 6.42L121.93 6.42L121.93 6.42Q122.53 6.19 123.26 6.19L123.26 6.19L123.26 6.19Q124.00 6.19 124.58 6.41L124.58 6.41L124.58 6.41Q125.17 6.63 125.58 7.05L125.58 7.05L125.58 7.05Q125.99 7.48 126.22 8.09L126.22 8.09L126.22 8.09Q126.44 8.70 126.44 9.49L126.44 9.49ZM121.20 9.00L125.34 9.00L125.34 9.00Q125.25 7.96 124.72 7.43L124.72 7.43L124.72 7.43Q124.19 6.90 123.27 6.90L123.27 6.90L123.27 6.90Q122.84 6.90 122.49 7.04L122.49 7.04L122.49 7.04Q122.13 7.19 121.86 7.45L121.86 7.45L121.86 7.45Q121.60 7.72 121.43 8.10L121.43 8.10L121.43 8.10Q121.26 8.48 121.20 9.00L121.20 9.00Z"></path></g><!----><g data-v-423bf9ae="" id="f647703f-d93e-41b6-8f75-3c19e39bfdda" transform="matrix(1.1421319354630703,0,0,1.1421319354630703,261.4934090592669,-11.50659857012758)" stroke="none" fill="#010033"><path d="M77.8 22.2L50 10.6 22.2 22.2 10.6 50l11.5 27.8L50 89.4l27.8-11.5L89.4 50 77.8 22.2zm9.1 26.3l-12.5-3.4v-.6c0-2-1.1-3.8-2.7-4.8L77.3 25l9.6 23.5zM45.8 60.3c-.3-2.3-1.6-4.2-3.5-5.3l5-12.1c.9.3 1.8.4 2.7.4s1.9-.1 2.7-.4l6.2 15c-.8.6-1.4 1.4-1.6 2.4H45.8zm15.4-3.1c-.2 0-.4 0-.7.1l-6.2-15c1.3-.7 2.3-1.7 3.1-2.9l6.2 3.4c-.2.6-.3 1.2-.3 1.8 0 1.9 1 3.6 2.4 4.6L62 57.3c-.3-.1-.5-.1-.8-.1zM38.7 54c-.8 0-1.6.1-2.3.4l-5.6-11.6c.9-.7 1.5-1.8 1.5-3.1v-.1l9.3-2.3c.7 2.1 2.2 3.9 4.2 4.9l-5 12c-.7-.1-1.4-.2-2.1-.2zm30.1-14.9c-1.8 0-3.3.8-4.3 2.1l-6.2-3.4c.5-1.1.7-2.3.7-3.5 0-1-.2-1.9-.5-2.8l17-7.1L70 39.2c-.4-.1-.8-.1-1.2-.1zm-27.7-3.5l-9.3 2.3c-.7-1.3-2-2.2-3.6-2.2h-.3l-3.6-11.3 17.1 7.1c-.3.9-.5 1.8-.5 2.8.1.5.1.9.2 1.3zm-15.7 6.9c.7.7 1.7 1.2 2.8 1.2.3 0 .6 0 .9-.1l5.6 11.6c-1 .6-1.8 1.5-2.4 2.5L13.6 50l11.8-7.5zM63.6 58l3.8-8.1c.5.1 1 .2 1.5.2 2.2 0 4.2-1.3 5-3.2L86 50.1 64.5 59c-.2-.4-.6-.7-.9-1zm13.1-34zm-18.9 5.9c-1.4-2.5-4-4.2-6.9-4.5V12.9l24 9.9-17.1 7.1zm-8.7-17v12.5c-3 .3-5.5 2-6.9 4.5l-17.1-7.1 24-9.9zM22.8 25.2l3.5 11c-1.2.7-2 2-2 3.4 0 .5.1.9.3 1.4l-11.2 7.1 9.4-22.9zM12.7 49.5zm.5 2.1l18.5 7.7c-.2.6-.3 1.2-.3 1.9 0 1.7.6 3.2 1.6 4.5l-9.9 10-9.9-24.1zm10.3 24.9zm.9.4l9.9-10c1.2.9 2.7 1.5 4.4 1.5.7 0 1.4-.1 2-.3l7.7 18.7-24-9.9zm17.9-9.5c1.9-1.1 3.3-3.1 3.5-5.4h11.5c.2 1 .8 1.9 1.7 2.4l-9 21.7-7.7-18.7zm18.3-2.3c.2 0 .4.1.6.1.8 0 1.5-.2 2.1-.6l12.3 12.3-24 9.9 9-21.7zm16.3 10.5L64.5 63.3c.4-.6.6-1.3.6-2.1 0-.2 0-.4-.1-.6l21.7-9-9.8 24zm10.4-26.1z"></path></g><!----></svg>